<mxfile host="app.diagrams.net" agent="Mozilla/5.0 (Windows NT 10.0; Win64; x64) AppleWebKit/537.36 (KHTML, like Gecko) Chrome/133.0.0.0 Safari/537.36 Edg/133.0.0.0" version="26.0.16">
  <diagram name="Page-1" id="9uW_o__b8WgmFLUVw2Tw">
    <mxGraphModel dx="2077" dy="811" grid="1" gridSize="10" guides="1" tooltips="1" connect="1" arrows="1" fold="1" page="1" pageScale="1" pageWidth="850" pageHeight="1100" math="0" shadow="0">
      <root>
        <mxCell id="0" />
        <mxCell id="1" parent="0" />
        <mxCell id="aq0XtCBK7uv4Ma7wh72j-16" style="edgeStyle=orthogonalEdgeStyle;rounded=0;orthogonalLoop=1;jettySize=auto;html=1;entryX=0.5;entryY=0;entryDx=0;entryDy=0;" edge="1" parent="1" source="aq0XtCBK7uv4Ma7wh72j-1" target="aq0XtCBK7uv4Ma7wh72j-8">
          <mxGeometry relative="1" as="geometry" />
        </mxCell>
        <mxCell id="aq0XtCBK7uv4Ma7wh72j-1" value="Start" style="ellipse;whiteSpace=wrap;html=1;" vertex="1" parent="1">
          <mxGeometry x="-480" y="40" width="70" height="30" as="geometry" />
        </mxCell>
        <mxCell id="aq0XtCBK7uv4Ma7wh72j-26" style="edgeStyle=orthogonalEdgeStyle;rounded=0;orthogonalLoop=1;jettySize=auto;html=1;entryX=0.5;entryY=0;entryDx=0;entryDy=0;" edge="1" parent="1" source="aq0XtCBK7uv4Ma7wh72j-2" target="aq0XtCBK7uv4Ma7wh72j-24">
          <mxGeometry relative="1" as="geometry">
            <Array as="points">
              <mxPoint x="-445" y="380" />
              <mxPoint x="-445" y="380" />
            </Array>
          </mxGeometry>
        </mxCell>
        <mxCell id="aq0XtCBK7uv4Ma7wh72j-2" value="Setup/Initialization&lt;br&gt;freeRTOS tasks for command and responses of the fingerprint scanner in the main file" style="rounded=0;whiteSpace=wrap;html=1;" vertex="1" parent="1">
          <mxGeometry x="-510" y="240" width="130" height="90" as="geometry" />
        </mxCell>
        <mxCell id="aq0XtCBK7uv4Ma7wh72j-22" style="edgeStyle=orthogonalEdgeStyle;rounded=0;orthogonalLoop=1;jettySize=auto;html=1;entryX=0;entryY=0.5;entryDx=0;entryDy=0;" edge="1" parent="1" source="aq0XtCBK7uv4Ma7wh72j-4" target="aq0XtCBK7uv4Ma7wh72j-21">
          <mxGeometry relative="1" as="geometry">
            <Array as="points">
              <mxPoint x="-615" y="860" />
            </Array>
          </mxGeometry>
        </mxCell>
        <mxCell id="aq0XtCBK7uv4Ma7wh72j-4" value="Task 1&lt;br&gt;&lt;div style=&quot;color: rgb(204, 204, 204); background-color: rgb(31, 31, 31); font-family: Consolas, &amp;quot;Courier New&amp;quot;, monospace; font-size: 14px; line-height: 19px; white-space: pre;&quot;&gt;&lt;span style=&quot;color: #dcdcaa;&quot;&gt;fingerprint_send_command&lt;/span&gt;&lt;/div&gt;" style="rounded=0;whiteSpace=wrap;html=1;" vertex="1" parent="1">
          <mxGeometry x="-680" y="815" width="210" height="90" as="geometry" />
        </mxCell>
        <mxCell id="aq0XtCBK7uv4Ma7wh72j-33" style="edgeStyle=orthogonalEdgeStyle;rounded=0;orthogonalLoop=1;jettySize=auto;html=1;entryX=0.5;entryY=1;entryDx=0;entryDy=0;" edge="1" parent="1" source="aq0XtCBK7uv4Ma7wh72j-5" target="aq0XtCBK7uv4Ma7wh72j-29">
          <mxGeometry relative="1" as="geometry" />
        </mxCell>
        <mxCell id="aq0XtCBK7uv4Ma7wh72j-5" value="Task 2&lt;div&gt;&lt;div style=&quot;color: rgb(204, 204, 204); background-color: rgb(31, 31, 31); font-family: Consolas, &amp;quot;Courier New&amp;quot;, monospace; font-size: 14px; line-height: 19px; white-space: pre;&quot;&gt;&lt;span style=&quot;color: #dcdcaa;&quot;&gt;fingerprint_read_response&lt;/span&gt;&lt;/div&gt;&lt;/div&gt;" style="rounded=0;whiteSpace=wrap;html=1;" vertex="1" parent="1">
          <mxGeometry x="-355" y="600" width="205" height="90" as="geometry" />
        </mxCell>
        <mxCell id="aq0XtCBK7uv4Ma7wh72j-35" style="edgeStyle=orthogonalEdgeStyle;rounded=0;orthogonalLoop=1;jettySize=auto;html=1;entryX=0.5;entryY=0;entryDx=0;entryDy=0;" edge="1" parent="1" source="aq0XtCBK7uv4Ma7wh72j-24" target="aq0XtCBK7uv4Ma7wh72j-34">
          <mxGeometry relative="1" as="geometry" />
        </mxCell>
        <mxCell id="aq0XtCBK7uv4Ma7wh72j-24" value="&lt;h2&gt;Initialized freeRTOS tasks in main project file&lt;/h2&gt;" style="rounded=0;whiteSpace=wrap;html=1;glass=0;fillColor=none;align=center;verticalAlign=top;" vertex="1" parent="1">
          <mxGeometry x="-813.12" y="400" width="736.25" height="560" as="geometry" />
        </mxCell>
        <mxCell id="aq0XtCBK7uv4Ma7wh72j-17" style="edgeStyle=orthogonalEdgeStyle;rounded=0;orthogonalLoop=1;jettySize=auto;html=1;entryX=0.5;entryY=0;entryDx=0;entryDy=0;" edge="1" parent="1" source="aq0XtCBK7uv4Ma7wh72j-8" target="aq0XtCBK7uv4Ma7wh72j-2">
          <mxGeometry relative="1" as="geometry" />
        </mxCell>
        <mxCell id="aq0XtCBK7uv4Ma7wh72j-8" value="Initialize fingerprint library/header" style="rounded=0;whiteSpace=wrap;html=1;" vertex="1" parent="1">
          <mxGeometry x="-510" y="120" width="130" height="80" as="geometry" />
        </mxCell>
        <mxCell id="aq0XtCBK7uv4Ma7wh72j-28" style="edgeStyle=orthogonalEdgeStyle;rounded=0;orthogonalLoop=1;jettySize=auto;html=1;entryX=0.5;entryY=1;entryDx=0;entryDy=0;" edge="1" parent="1" source="aq0XtCBK7uv4Ma7wh72j-21" target="aq0XtCBK7uv4Ma7wh72j-5">
          <mxGeometry relative="1" as="geometry">
            <Array as="points">
              <mxPoint x="-252" y="860" />
              <mxPoint x="-252" y="745" />
            </Array>
          </mxGeometry>
        </mxCell>
        <mxCell id="aq0XtCBK7uv4Ma7wh72j-21" value="Fingerprint Scanner Module&lt;div&gt;&lt;br&gt;&lt;/div&gt;&lt;div&gt;Receives Command from Main Control Board then send response to back.&lt;/div&gt;" style="shape=parallelogram;perimeter=parallelogramPerimeter;whiteSpace=wrap;html=1;fixedSize=1;" vertex="1" parent="1">
          <mxGeometry x="-390" y="800" width="230" height="120" as="geometry" />
        </mxCell>
        <mxCell id="aq0XtCBK7uv4Ma7wh72j-32" style="edgeStyle=orthogonalEdgeStyle;rounded=0;orthogonalLoop=1;jettySize=auto;html=1;entryX=1;entryY=0.5;entryDx=0;entryDy=0;" edge="1" parent="1" source="aq0XtCBK7uv4Ma7wh72j-29" target="aq0XtCBK7uv4Ma7wh72j-30">
          <mxGeometry relative="1" as="geometry" />
        </mxCell>
        <mxCell id="aq0XtCBK7uv4Ma7wh72j-29" value="Extract confirmation/status id throw an event" style="rounded=0;whiteSpace=wrap;html=1;align=center;" vertex="1" parent="1">
          <mxGeometry x="-312.5" y="470" width="120" height="70" as="geometry" />
        </mxCell>
        <mxCell id="aq0XtCBK7uv4Ma7wh72j-30" value="Throw the event in higher level like handle_fingerprint_event in the main project file and the devs can process it based on their setup" style="rounded=0;whiteSpace=wrap;html=1;align=center;" vertex="1" parent="1">
          <mxGeometry x="-570" y="450" width="170" height="110" as="geometry" />
        </mxCell>
        <mxCell id="aq0XtCBK7uv4Ma7wh72j-34" value="End process" style="ellipse;whiteSpace=wrap;html=1;" vertex="1" parent="1">
          <mxGeometry x="-505" y="1000" width="120" height="40" as="geometry" />
        </mxCell>
      </root>
    </mxGraphModel>
  </diagram>
</mxfile>
